<svg width="91" height="111" viewBox="0 0 91 111" fill="none" xmlns="http://www.w3.org/2000/svg">
<path d="M66.6698 47.1974C67.8953 46.981 69.0775 46.6813 70.2074 46.3039L70.2027 46.2984C78.3363 43.5568 83.714 36.6248 83.714 25.669C83.714 17.9825 79.7284 11.6662 73.8689 8.49168C69.049 5.88332 63.8141 4.49582 58.56 3.6967C46.0358 1.78758 33.4587 0.0779928 20.8053 0.000273725C12.8483 -0.0495523 9.47305 6.71034 7.81376 14.2472C5.77304 23.5601 4.36205 34.8098 4.58604 44.3891C4.7338 50.7439 6.97938 57.7868 14.555 56.6825C25.7733 55.0506 36.41 52.9806 47.1798 50.8824C53.5829 49.6339 60.0286 48.3797 66.6698 47.1974ZM14.6457 110.995H69.1061L69.1111 111C83.2755 111 92.0242 96.9586 90.4031 81.3466C89.421 71.8394 85.6164 61.6329 77.23 58.3861C70.5364 55.7887 63.1657 56.9209 56.2382 57.9811C55.4803 58.0977 54.7271 58.2142 53.9784 58.3196C46.1691 59.463 38.3934 60.8781 30.6221 62.2935C29.449 62.5098 28.2764 62.7207 27.1083 62.9372C26.7316 63.004 26.3504 63.0702 25.9687 63.1425C20.5148 64.1249 14.4408 65.2237 9.28682 67.0773C4.05686 68.959 2.23565 74.4644 1.37744 80.0755C1.01018 82.4788 0.790905 84.9095 0.571869 87.3348C0.504837 88.0507 0.443003 88.7669 0.376207 89.4828C-0.186253 95.2602 -0.658316 101.265 3.18921 105.911C6.0879 109.424 10.5791 110.995 14.6457 110.995Z" fill="white"/>
</svg>
