<svg width="50" height="60" viewBox="0 0 50 60" fill="none" xmlns="http://www.w3.org/2000/svg">
<path d="M36.7954 25.5121C37.4716 25.3951 38.1241 25.2331 38.7477 25.0291L38.7451 25.0261C43.234 23.5441 46.2021 19.7971 46.2021 13.8751C46.2021 9.72012 44.0024 6.30613 40.7686 4.59014C38.1083 3.18014 35.2192 2.43014 32.3196 1.99814C25.4073 0.966146 18.466 0.0421486 11.4826 0.000148694C7.09105 -0.0268512 5.22811 3.62714 4.31243 7.70113C3.18626 12.7351 2.4074 18.8161 2.53107 23.9941C2.61264 27.4291 3.85196 31.2361 8.03304 30.6391C14.2244 29.7571 20.0947 28.6381 26.0388 27.5041C29.5725 26.8291 33.13 26.1511 36.7954 25.5121ZM8.08303 59.997H38.1399L38.1426 60C45.96 60 50.7884 52.41 49.8938 43.971C49.3517 38.8321 47.252 33.3151 42.6236 31.5601C38.9293 30.1561 34.8614 30.7681 31.0381 31.3411C30.6198 31.4041 30.204 31.4671 29.7909 31.5241C25.4809 32.1421 21.1893 32.9071 16.9004 33.6721C16.2531 33.7891 15.6058 33.9031 14.9611 34.0201C14.7533 34.0561 14.5428 34.0921 14.3323 34.1311C11.3221 34.6621 7.96989 35.2561 5.12549 36.2581C2.239 37.2751 1.23386 40.2511 0.760232 43.284C0.557625 44.583 0.436587 45.897 0.315549 47.208C0.278712 47.595 0.244505 47.982 0.207668 48.369C-0.102821 51.492 -0.363316 54.738 1.76011 57.249C3.35992 59.148 5.83857 59.997 8.08303 59.997Z" fill="white"/>
</svg>
