<svg width="20" height="20" viewBox="0 0 20 20" fill="none" xmlns="http://www.w3.org/2000/svg">
<path d="M19.3746 10.225C19.3746 9.56671 19.3169 8.94171 19.2179 8.33338H9.89746V12.0917H15.234C14.9948 13.325 14.2937 14.3667 13.2545 15.075V17.575H16.4383C18.3024 15.8334 19.3746 13.2667 19.3746 10.225Z" fill="black"/>
<path d="M9.89729 20C12.5697 20 14.805 19.1 16.4381 17.575L13.2543 15.075C12.3635 15.675 11.2335 16.0417 9.89729 16.0417C7.31561 16.0417 5.12984 14.2834 4.34626 11.9084H1.06348V14.4834C2.68837 17.75 6.02889 20 9.89729 20Z" fill="black"/>
<path d="M4.3468 11.9084C4.14059 11.3084 4.03337 10.6667 4.03337 10C4.03337 9.33338 4.14884 8.69171 4.3468 8.09171V5.51671H1.06402C0.387665 6.86671 0 8.38338 0 10C0 11.6167 0.387665 13.1334 1.06402 14.4834L4.3468 11.9084Z" fill="black"/>
<path d="M9.89729 3.95838C11.3572 3.95838 12.6604 4.46672 13.6915 5.45838L16.5123 2.60838C14.805 0.991716 12.5697 4.95911e-05 9.89729 4.95911e-05C6.02889 4.95911e-05 2.68837 2.25005 1.06348 5.51672L4.34626 8.09172C5.12983 5.71672 7.31561 3.95838 9.89729 3.95838Z" fill="black"/>
</svg>
